<mxfile host="app.diagrams.net" modified="2023-12-04T19:31:02.915Z" agent="Mozilla/5.0 (Windows NT 10.0; Win64; x64) AppleWebKit/537.36 (KHTML, like Gecko) Chrome/118.0.0.0 Safari/537.36 OPR/104.0.0.0" etag="SjbQ6LxZB_9doET5DPHD" version="22.1.5" type="device">
  <diagram name="Pagina-1" id="f_jeKpJYyIS8H_iiBlOt">
    <mxGraphModel dx="2101" dy="722" grid="1" gridSize="10" guides="1" tooltips="1" connect="1" arrows="1" fold="1" page="1" pageScale="1" pageWidth="827" pageHeight="1169" math="0" shadow="0">
      <root>
        <mxCell id="0" />
        <mxCell id="1" parent="0" />
        <mxCell id="wNFToPIFawrMfpCmmGGO-1" value="&lt;font style=&quot;font-size: 16px;&quot;&gt;PILOTA&lt;/font&gt;" style="rounded=1;whiteSpace=wrap;html=1;" vertex="1" parent="1">
          <mxGeometry x="180" y="390" width="100" height="30" as="geometry" />
        </mxCell>
        <mxCell id="wNFToPIFawrMfpCmmGGO-2" value="" style="ellipse;whiteSpace=wrap;html=1;aspect=fixed;fillColor=#000000;" vertex="1" parent="1">
          <mxGeometry x="185" y="360" width="10" height="10" as="geometry" />
        </mxCell>
        <mxCell id="wNFToPIFawrMfpCmmGGO-3" value="" style="endArrow=none;html=1;rounded=0;" edge="1" parent="1" target="wNFToPIFawrMfpCmmGGO-2">
          <mxGeometry width="50" height="50" relative="1" as="geometry">
            <mxPoint x="190" y="390" as="sourcePoint" />
            <mxPoint x="194.9955339059288" y="370.0044660940711" as="targetPoint" />
          </mxGeometry>
        </mxCell>
        <mxCell id="wNFToPIFawrMfpCmmGGO-4" value="" style="ellipse;whiteSpace=wrap;html=1;aspect=fixed;fillColor=#000000;" vertex="1" parent="1">
          <mxGeometry x="390" y="870" width="10" height="10" as="geometry" />
        </mxCell>
        <mxCell id="wNFToPIFawrMfpCmmGGO-5" value="" style="endArrow=none;html=1;rounded=0;" edge="1" parent="1" target="wNFToPIFawrMfpCmmGGO-4">
          <mxGeometry width="50" height="50" relative="1" as="geometry">
            <mxPoint x="375" y="875" as="sourcePoint" />
            <mxPoint x="399.9955339059288" y="880.0044660940712" as="targetPoint" />
          </mxGeometry>
        </mxCell>
        <mxCell id="wNFToPIFawrMfpCmmGGO-6" value="" style="ellipse;whiteSpace=wrap;html=1;aspect=fixed;fillColor=#000000;" vertex="1" parent="1">
          <mxGeometry x="310" y="720" width="10" height="10" as="geometry" />
        </mxCell>
        <mxCell id="wNFToPIFawrMfpCmmGGO-7" value="" style="endArrow=none;html=1;rounded=0;" edge="1" parent="1" target="wNFToPIFawrMfpCmmGGO-6">
          <mxGeometry width="50" height="50" relative="1" as="geometry">
            <mxPoint x="290" y="725" as="sourcePoint" />
            <mxPoint x="314.9955339059288" y="730.0044660940712" as="targetPoint" />
          </mxGeometry>
        </mxCell>
        <mxCell id="wNFToPIFawrMfpCmmGGO-8" value="" style="ellipse;whiteSpace=wrap;html=1;aspect=fixed;fillColor=#000000;" vertex="1" parent="1">
          <mxGeometry x="470" y="530" width="10" height="10" as="geometry" />
        </mxCell>
        <mxCell id="wNFToPIFawrMfpCmmGGO-9" value="" style="endArrow=none;html=1;rounded=0;" edge="1" parent="1" target="wNFToPIFawrMfpCmmGGO-8">
          <mxGeometry width="50" height="50" relative="1" as="geometry">
            <mxPoint x="475" y="560" as="sourcePoint" />
            <mxPoint x="479.9955339059288" y="540.0044660940712" as="targetPoint" />
          </mxGeometry>
        </mxCell>
        <mxCell id="wNFToPIFawrMfpCmmGGO-10" value="" style="ellipse;whiteSpace=wrap;html=1;aspect=fixed;fillColor=#000000;" vertex="1" parent="1">
          <mxGeometry x="450" y="440" width="10" height="10" as="geometry" />
        </mxCell>
        <mxCell id="wNFToPIFawrMfpCmmGGO-11" value="" style="endArrow=none;html=1;rounded=0;exitX=0.14;exitY=0.999;exitDx=0;exitDy=0;exitPerimeter=0;" edge="1" parent="1" target="wNFToPIFawrMfpCmmGGO-10" source="wNFToPIFawrMfpCmmGGO-43">
          <mxGeometry width="50" height="50" relative="1" as="geometry">
            <mxPoint x="454" y="425" as="sourcePoint" />
            <mxPoint x="459.9955339059288" y="455.0044660940711" as="targetPoint" />
          </mxGeometry>
        </mxCell>
        <mxCell id="wNFToPIFawrMfpCmmGGO-12" value="" style="ellipse;whiteSpace=wrap;html=1;aspect=fixed;fillColor=#000000;strokeColor=#000000;" vertex="1" parent="1">
          <mxGeometry x="185" y="540" width="10" height="10" as="geometry" />
        </mxCell>
        <mxCell id="wNFToPIFawrMfpCmmGGO-13" value="" style="endArrow=none;html=1;rounded=0;" edge="1" parent="1">
          <mxGeometry width="50" height="50" relative="1" as="geometry">
            <mxPoint x="190" y="560" as="sourcePoint" />
            <mxPoint x="190" y="550" as="targetPoint" />
          </mxGeometry>
        </mxCell>
        <mxCell id="wNFToPIFawrMfpCmmGGO-14" value="" style="ellipse;whiteSpace=wrap;html=1;aspect=fixed;fillColor=#FFFFFF;" vertex="1" parent="1">
          <mxGeometry x="436" y="760" width="10" height="10" as="geometry" />
        </mxCell>
        <mxCell id="wNFToPIFawrMfpCmmGGO-15" value="" style="endArrow=none;html=1;rounded=0;" edge="1" parent="1" target="wNFToPIFawrMfpCmmGGO-14">
          <mxGeometry width="50" height="50" relative="1" as="geometry">
            <mxPoint x="466" y="765" as="sourcePoint" />
            <mxPoint x="445.9955339059288" y="770.0044660940712" as="targetPoint" />
          </mxGeometry>
        </mxCell>
        <mxCell id="wNFToPIFawrMfpCmmGGO-16" value="" style="ellipse;whiteSpace=wrap;html=1;aspect=fixed;fillColor=#FFFFFF;" vertex="1" parent="1">
          <mxGeometry x="265" y="360" width="10" height="10" as="geometry" />
        </mxCell>
        <mxCell id="wNFToPIFawrMfpCmmGGO-17" value="" style="endArrow=none;html=1;rounded=0;" edge="1" parent="1" target="wNFToPIFawrMfpCmmGGO-16">
          <mxGeometry width="50" height="50" relative="1" as="geometry">
            <mxPoint x="270" y="390" as="sourcePoint" />
            <mxPoint x="274.9955339059288" y="370.0044660940711" as="targetPoint" />
          </mxGeometry>
        </mxCell>
        <mxCell id="wNFToPIFawrMfpCmmGGO-20" value="&lt;p style=&quot;line-height: 100%; font-size: 11px;&quot;&gt;&lt;font style=&quot;font-size: 11px;&quot;&gt;Codice&lt;br&gt;Pilota&lt;/font&gt;&lt;/p&gt;" style="text;html=1;align=center;verticalAlign=middle;resizable=0;points=[];autosize=1;strokeColor=none;fillColor=none;" vertex="1" parent="1">
          <mxGeometry x="160" y="315" width="60" height="60" as="geometry" />
        </mxCell>
        <mxCell id="wNFToPIFawrMfpCmmGGO-22" value="&lt;p style=&quot;line-height: 0%; font-size: 11px;&quot;&gt;&lt;font style=&quot;font-size: 11px;&quot;&gt;Data di&amp;nbsp;&lt;/font&gt;&lt;/p&gt;&lt;p style=&quot;line-height: 0%; font-size: 11px;&quot;&gt;&lt;font style=&quot;font-size: 11px;&quot;&gt;nascita&lt;/font&gt;&lt;/p&gt;" style="text;html=1;align=center;verticalAlign=middle;resizable=0;points=[];autosize=1;strokeColor=none;fillColor=none;" vertex="1" parent="1">
          <mxGeometry x="240" y="320" width="60" height="50" as="geometry" />
        </mxCell>
        <mxCell id="wNFToPIFawrMfpCmmGGO-24" value="" style="ellipse;whiteSpace=wrap;html=1;aspect=fixed;fillColor=#FFFFFF;" vertex="1" parent="1">
          <mxGeometry x="365" y="610" width="10" height="10" as="geometry" />
        </mxCell>
        <mxCell id="wNFToPIFawrMfpCmmGGO-25" value="" style="endArrow=none;html=1;rounded=0;" edge="1" parent="1" target="wNFToPIFawrMfpCmmGGO-24">
          <mxGeometry width="50" height="50" relative="1" as="geometry">
            <mxPoint x="370" y="590" as="sourcePoint" />
            <mxPoint x="374.9955339059288" y="620.0044660940712" as="targetPoint" />
          </mxGeometry>
        </mxCell>
        <mxCell id="wNFToPIFawrMfpCmmGGO-26" value="" style="ellipse;whiteSpace=wrap;html=1;aspect=fixed;fillColor=#FFFFFF;" vertex="1" parent="1">
          <mxGeometry x="155" y="390" width="10" height="10" as="geometry" />
        </mxCell>
        <mxCell id="wNFToPIFawrMfpCmmGGO-27" value="" style="endArrow=none;html=1;rounded=0;" edge="1" parent="1" target="wNFToPIFawrMfpCmmGGO-26">
          <mxGeometry width="50" height="50" relative="1" as="geometry">
            <mxPoint x="180" y="395" as="sourcePoint" />
            <mxPoint x="170" y="395" as="targetPoint" />
          </mxGeometry>
        </mxCell>
        <mxCell id="wNFToPIFawrMfpCmmGGO-28" value="&lt;p style=&quot;line-height: 10%; font-size: 11px;&quot;&gt;&lt;font style=&quot;font-size: 11px;&quot;&gt;Codice&lt;/font&gt;&lt;/p&gt;&lt;p style=&quot;line-height: 10%; font-size: 11px;&quot;&gt;&lt;font style=&quot;font-size: 11px;&quot;&gt;Gentleman&lt;br&gt;&lt;br&gt;&lt;/font&gt;&lt;/p&gt;" style="text;html=1;align=center;verticalAlign=middle;resizable=0;points=[];autosize=1;strokeColor=none;fillColor=none;" vertex="1" parent="1">
          <mxGeometry x="415" y="440" width="80" height="50" as="geometry" />
        </mxCell>
        <mxCell id="wNFToPIFawrMfpCmmGGO-29" value="&lt;p style=&quot;line-height: 100%; font-size: 11px;&quot;&gt;Cognome&lt;/p&gt;" style="text;html=1;align=center;verticalAlign=middle;resizable=0;points=[];autosize=1;strokeColor=none;fillColor=none;" vertex="1" parent="1">
          <mxGeometry x="90" y="370" width="70" height="50" as="geometry" />
        </mxCell>
        <mxCell id="wNFToPIFawrMfpCmmGGO-31" value="" style="ellipse;whiteSpace=wrap;html=1;aspect=fixed;fillColor=#FFFFFF;" vertex="1" parent="1">
          <mxGeometry x="155" y="410" width="10" height="10" as="geometry" />
        </mxCell>
        <mxCell id="wNFToPIFawrMfpCmmGGO-32" value="" style="endArrow=none;html=1;rounded=0;" edge="1" parent="1" target="wNFToPIFawrMfpCmmGGO-31">
          <mxGeometry width="50" height="50" relative="1" as="geometry">
            <mxPoint x="180" y="415" as="sourcePoint" />
            <mxPoint x="170" y="415" as="targetPoint" />
          </mxGeometry>
        </mxCell>
        <mxCell id="wNFToPIFawrMfpCmmGGO-33" value="&lt;p style=&quot;line-height: 100%; font-size: 11px;&quot;&gt;Nazionalità&lt;/p&gt;" style="text;html=1;align=center;verticalAlign=middle;resizable=0;points=[];autosize=1;strokeColor=none;fillColor=none;" vertex="1" parent="1">
          <mxGeometry x="85" y="390" width="80" height="50" as="geometry" />
        </mxCell>
        <mxCell id="wNFToPIFawrMfpCmmGGO-34" value="" style="ellipse;whiteSpace=wrap;html=1;aspect=fixed;fillColor=#FFFFFF;" vertex="1" parent="1">
          <mxGeometry x="225" y="360" width="10" height="10" as="geometry" />
        </mxCell>
        <mxCell id="wNFToPIFawrMfpCmmGGO-35" value="" style="endArrow=none;html=1;rounded=0;" edge="1" parent="1" target="wNFToPIFawrMfpCmmGGO-34">
          <mxGeometry width="50" height="50" relative="1" as="geometry">
            <mxPoint x="230" y="390" as="sourcePoint" />
            <mxPoint x="234.99553390592882" y="370.0044660940711" as="targetPoint" />
          </mxGeometry>
        </mxCell>
        <mxCell id="wNFToPIFawrMfpCmmGGO-36" value="&lt;p style=&quot;line-height: 100%; font-size: 11px;&quot;&gt;Nome&lt;/p&gt;" style="text;html=1;align=center;verticalAlign=middle;resizable=0;points=[];autosize=1;strokeColor=none;fillColor=none;" vertex="1" parent="1">
          <mxGeometry x="205" y="325" width="50" height="50" as="geometry" />
        </mxCell>
        <mxCell id="wNFToPIFawrMfpCmmGGO-37" value="" style="ellipse;whiteSpace=wrap;html=1;aspect=fixed;fillColor=#FFFFFF;" vertex="1" parent="1">
          <mxGeometry x="265" y="440" width="10" height="10" as="geometry" />
        </mxCell>
        <mxCell id="wNFToPIFawrMfpCmmGGO-38" value="" style="endArrow=none;html=1;rounded=0;" edge="1" parent="1" target="wNFToPIFawrMfpCmmGGO-37">
          <mxGeometry width="50" height="50" relative="1" as="geometry">
            <mxPoint x="270" y="420" as="sourcePoint" />
            <mxPoint x="274.9955339059288" y="450.0044660940711" as="targetPoint" />
          </mxGeometry>
        </mxCell>
        <mxCell id="wNFToPIFawrMfpCmmGGO-39" value="" style="ellipse;whiteSpace=wrap;html=1;aspect=fixed;fillColor=#FFFFFF;" vertex="1" parent="1">
          <mxGeometry x="180" y="440" width="10" height="10" as="geometry" />
        </mxCell>
        <mxCell id="wNFToPIFawrMfpCmmGGO-40" value="" style="endArrow=none;html=1;rounded=0;" edge="1" parent="1" target="wNFToPIFawrMfpCmmGGO-39">
          <mxGeometry width="50" height="50" relative="1" as="geometry">
            <mxPoint x="185" y="420" as="sourcePoint" />
            <mxPoint x="189.99553390592882" y="450.0044660940711" as="targetPoint" />
          </mxGeometry>
        </mxCell>
        <mxCell id="wNFToPIFawrMfpCmmGGO-41" value="&lt;p style=&quot;line-height: 100%; font-size: 11px;&quot;&gt;#Licenze&lt;/p&gt;" style="text;html=1;align=center;verticalAlign=middle;resizable=0;points=[];autosize=1;strokeColor=none;fillColor=none;" vertex="1" parent="1">
          <mxGeometry x="150" y="430" width="70" height="50" as="geometry" />
        </mxCell>
        <mxCell id="wNFToPIFawrMfpCmmGGO-42" value="&lt;p style=&quot;line-height: 10%; font-size: 11px;&quot;&gt;Data prima&lt;/p&gt;&lt;p style=&quot;line-height: 10%; font-size: 11px;&quot;&gt;licenza&lt;/p&gt;" style="text;html=1;align=center;verticalAlign=middle;resizable=0;points=[];autosize=1;strokeColor=none;fillColor=none;" vertex="1" parent="1">
          <mxGeometry x="230" y="440" width="80" height="50" as="geometry" />
        </mxCell>
        <mxCell id="wNFToPIFawrMfpCmmGGO-43" value="&lt;font style=&quot;font-size: 16px;&quot;&gt;GENTLEMAN DRIVER&lt;/font&gt;" style="rounded=1;whiteSpace=wrap;html=1;" vertex="1" parent="1">
          <mxGeometry x="440" y="385" width="106" height="40" as="geometry" />
        </mxCell>
        <mxCell id="wNFToPIFawrMfpCmmGGO-44" value="" style="ellipse;whiteSpace=wrap;html=1;aspect=fixed;fillColor=#FFFFFF;" vertex="1" parent="1">
          <mxGeometry x="450" y="355" width="10" height="10" as="geometry" />
        </mxCell>
        <mxCell id="wNFToPIFawrMfpCmmGGO-45" value="" style="endArrow=none;html=1;rounded=0;" edge="1" parent="1" target="wNFToPIFawrMfpCmmGGO-44">
          <mxGeometry width="50" height="50" relative="1" as="geometry">
            <mxPoint x="455" y="385" as="sourcePoint" />
            <mxPoint x="459.9955339059288" y="365.0044660940711" as="targetPoint" />
          </mxGeometry>
        </mxCell>
        <mxCell id="wNFToPIFawrMfpCmmGGO-46" value="&lt;p style=&quot;line-height: 0%; font-size: 11px;&quot;&gt;Quota&lt;/p&gt;" style="text;html=1;align=center;verticalAlign=middle;resizable=0;points=[];autosize=1;strokeColor=none;fillColor=none;" vertex="1" parent="1">
          <mxGeometry x="500" y="325" width="50" height="40" as="geometry" />
        </mxCell>
        <mxCell id="wNFToPIFawrMfpCmmGGO-47" value="&lt;p style=&quot;line-height: 0%; font-size: 11px;&quot;&gt;#Finanziamenti&lt;/p&gt;" style="text;html=1;align=center;verticalAlign=middle;resizable=0;points=[];autosize=1;strokeColor=none;fillColor=none;" vertex="1" parent="1">
          <mxGeometry x="405" y="325" width="100" height="40" as="geometry" />
        </mxCell>
        <mxCell id="wNFToPIFawrMfpCmmGGO-48" value="" style="ellipse;whiteSpace=wrap;html=1;aspect=fixed;fillColor=#FFFFFF;" vertex="1" parent="1">
          <mxGeometry x="520" y="355" width="10" height="10" as="geometry" />
        </mxCell>
        <mxCell id="wNFToPIFawrMfpCmmGGO-49" value="" style="endArrow=none;html=1;rounded=0;" edge="1" parent="1" target="wNFToPIFawrMfpCmmGGO-48">
          <mxGeometry width="50" height="50" relative="1" as="geometry">
            <mxPoint x="525" y="385" as="sourcePoint" />
            <mxPoint x="529.9955339059288" y="365.0044660940711" as="targetPoint" />
          </mxGeometry>
        </mxCell>
        <mxCell id="wNFToPIFawrMfpCmmGGO-50" value="" style="endArrow=none;html=1;rounded=0;entryX=0.5;entryY=1;entryDx=0;entryDy=0;" edge="1" parent="1" target="wNFToPIFawrMfpCmmGGO-1">
          <mxGeometry width="50" height="50" relative="1" as="geometry">
            <mxPoint x="230" y="480" as="sourcePoint" />
            <mxPoint x="235" y="480" as="targetPoint" />
          </mxGeometry>
        </mxCell>
        <mxCell id="wNFToPIFawrMfpCmmGGO-51" value="Guida" style="rhombus;whiteSpace=wrap;html=1;" vertex="1" parent="1">
          <mxGeometry x="195" y="480" width="70" height="30" as="geometry" />
        </mxCell>
        <mxCell id="wNFToPIFawrMfpCmmGGO-52" value="" style="endArrow=none;html=1;rounded=0;entryX=0.5;entryY=1;entryDx=0;entryDy=0;" edge="1" parent="1">
          <mxGeometry width="50" height="50" relative="1" as="geometry">
            <mxPoint x="230" y="560" as="sourcePoint" />
            <mxPoint x="230" y="510" as="targetPoint" />
          </mxGeometry>
        </mxCell>
        <mxCell id="wNFToPIFawrMfpCmmGGO-55" value="&lt;p style=&quot;line-height: 100%;&quot;&gt;&lt;font color=&quot;#007fff&quot; style=&quot;font-size: 6px;&quot;&gt;(1,n&lt;/font&gt;&lt;span style=&quot;font-size: 6px; color: rgb(0, 127, 255); background-color: initial;&quot;&gt;)&lt;/span&gt;&lt;/p&gt;" style="text;html=1;align=center;verticalAlign=middle;resizable=0;points=[];autosize=1;strokeColor=none;fillColor=none;" vertex="1" parent="1">
          <mxGeometry x="-20" y="690" width="40" height="50" as="geometry" />
        </mxCell>
        <mxCell id="wNFToPIFawrMfpCmmGGO-56" value="&lt;p style=&quot;line-height: 100%;&quot;&gt;&lt;font color=&quot;#007fff&quot; style=&quot;font-size: 6px;&quot;&gt;(0,1)&lt;/font&gt;&lt;/p&gt;" style="text;html=1;align=center;verticalAlign=middle;resizable=0;points=[];autosize=1;strokeColor=none;fillColor=none;" vertex="1" parent="1">
          <mxGeometry x="264.5" y="720" width="40" height="50" as="geometry" />
        </mxCell>
        <mxCell id="wNFToPIFawrMfpCmmGGO-57" value="&lt;p style=&quot;line-height: 100%;&quot;&gt;&lt;font color=&quot;#007fff&quot; style=&quot;font-size: 6px;&quot;&gt;(1,1)&lt;/font&gt;&lt;/p&gt;" style="text;html=1;align=center;verticalAlign=middle;resizable=0;points=[];autosize=1;strokeColor=none;fillColor=none;" vertex="1" parent="1">
          <mxGeometry x="200" y="400" width="40" height="50" as="geometry" />
        </mxCell>
        <mxCell id="wNFToPIFawrMfpCmmGGO-59" value="&lt;p style=&quot;line-height: 100%;&quot;&gt;&lt;font color=&quot;#ff6666&quot; style=&quot;font-size: 10px;&quot;&gt;1&lt;/font&gt;&lt;/p&gt;" style="text;html=1;align=center;verticalAlign=middle;resizable=0;points=[];autosize=1;strokeColor=none;fillColor=none;" vertex="1" parent="1">
          <mxGeometry x="240" y="480" width="30" height="50" as="geometry" />
        </mxCell>
        <mxCell id="wNFToPIFawrMfpCmmGGO-61" value="&lt;p style=&quot;line-height: 0%;&quot;&gt;&lt;font color=&quot;#ff6666&quot; style=&quot;font-size: 10px;&quot;&gt;&lt;br&gt;&lt;/font&gt;&lt;/p&gt;&lt;p style=&quot;line-height: 0%;&quot;&gt;&lt;font color=&quot;#ff6666&quot; style=&quot;font-size: 10px;&quot;&gt;N&lt;/font&gt;&lt;/p&gt;" style="text;html=1;align=center;verticalAlign=middle;resizable=0;points=[];autosize=1;strokeColor=none;fillColor=none;" vertex="1" parent="1">
          <mxGeometry x="190" y="450" width="30" height="50" as="geometry" />
        </mxCell>
        <mxCell id="wNFToPIFawrMfpCmmGGO-62" value="&lt;font style=&quot;font-size: 16px;&quot;&gt;VETTURA&lt;/font&gt;" style="rounded=1;whiteSpace=wrap;html=1;" vertex="1" parent="1">
          <mxGeometry x="180" y="560" width="100" height="30" as="geometry" />
        </mxCell>
        <mxCell id="wNFToPIFawrMfpCmmGGO-63" value="&lt;font style=&quot;font-size: 16px;&quot;&gt;SCUDERIA&lt;/font&gt;" style="rounded=1;whiteSpace=wrap;html=1;" vertex="1" parent="1">
          <mxGeometry x="-120" y="560" width="100" height="30" as="geometry" />
        </mxCell>
        <mxCell id="wNFToPIFawrMfpCmmGGO-64" value="&lt;font style=&quot;font-size: 16px;&quot;&gt;COMPONENTE&lt;/font&gt;" style="rounded=1;whiteSpace=wrap;html=1;" vertex="1" parent="1">
          <mxGeometry x="170" y="710" width="120" height="30" as="geometry" />
        </mxCell>
        <mxCell id="wNFToPIFawrMfpCmmGGO-65" value="&lt;font style=&quot;font-size: 16px;&quot;&gt;COSTRUTTORE&lt;/font&gt;" style="rounded=1;whiteSpace=wrap;html=1;" vertex="1" parent="1">
          <mxGeometry x="-140" y="710" width="130" height="30" as="geometry" />
        </mxCell>
        <mxCell id="wNFToPIFawrMfpCmmGGO-66" value="&lt;font style=&quot;font-size: 16px;&quot;&gt;TELAIO&lt;/font&gt;" style="rounded=1;whiteSpace=wrap;html=1;" vertex="1" parent="1">
          <mxGeometry x="194.5" y="870" width="70" height="30" as="geometry" />
        </mxCell>
        <mxCell id="wNFToPIFawrMfpCmmGGO-67" value="&lt;font style=&quot;font-size: 16px;&quot;&gt;MOTORE&lt;/font&gt;" style="rounded=1;whiteSpace=wrap;html=1;" vertex="1" parent="1">
          <mxGeometry x="80" y="860" width="80" height="30" as="geometry" />
        </mxCell>
        <mxCell id="wNFToPIFawrMfpCmmGGO-68" value="&lt;font style=&quot;font-size: 16px;&quot;&gt;CAMBIO&lt;/font&gt;" style="rounded=1;whiteSpace=wrap;html=1;" vertex="1" parent="1">
          <mxGeometry x="305" y="860" width="70" height="30" as="geometry" />
        </mxCell>
        <mxCell id="wNFToPIFawrMfpCmmGGO-69" value="&lt;font style=&quot;font-size: 16px;&quot;&gt;CIRCUITO&lt;/font&gt;" style="rounded=1;whiteSpace=wrap;html=1;" vertex="1" parent="1">
          <mxGeometry x="466" y="750" width="80" height="30" as="geometry" />
        </mxCell>
        <mxCell id="wNFToPIFawrMfpCmmGGO-70" value="&lt;font style=&quot;font-size: 16px;&quot;&gt;GARA&lt;/font&gt;" style="rounded=1;whiteSpace=wrap;html=1;" vertex="1" parent="1">
          <mxGeometry x="460" y="560" width="85" height="30" as="geometry" />
        </mxCell>
        <mxCell id="wNFToPIFawrMfpCmmGGO-71" value="Iscrizione" style="rhombus;whiteSpace=wrap;html=1;" vertex="1" parent="1">
          <mxGeometry x="325" y="560" width="90" height="30" as="geometry" />
        </mxCell>
        <mxCell id="wNFToPIFawrMfpCmmGGO-72" value="Composizione" style="rhombus;whiteSpace=wrap;html=1;" vertex="1" parent="1">
          <mxGeometry x="175" y="630" width="110" height="40" as="geometry" />
        </mxCell>
        <mxCell id="wNFToPIFawrMfpCmmGGO-73" value="Coinvolgimento" style="rhombus;whiteSpace=wrap;html=1;" vertex="1" parent="1">
          <mxGeometry x="444" y="660" width="122" height="40" as="geometry" />
        </mxCell>
        <mxCell id="wNFToPIFawrMfpCmmGGO-74" value="Produzione" style="rhombus;whiteSpace=wrap;html=1;" vertex="1" parent="1">
          <mxGeometry x="30" y="710" width="100" height="30" as="geometry" />
        </mxCell>
        <mxCell id="wNFToPIFawrMfpCmmGGO-75" value="Tipologia &lt;br&gt;motore" style="rhombus;whiteSpace=wrap;html=1;" vertex="1" parent="1">
          <mxGeometry x="69" y="770" width="101" height="50" as="geometry" />
        </mxCell>
        <mxCell id="wNFToPIFawrMfpCmmGGO-76" value="Tipologia &lt;br&gt;cambio" style="rhombus;whiteSpace=wrap;html=1;" vertex="1" parent="1">
          <mxGeometry x="289.5" y="770" width="101" height="50" as="geometry" />
        </mxCell>
        <mxCell id="wNFToPIFawrMfpCmmGGO-77" value="Tipologia &lt;br&gt;telaio" style="rhombus;whiteSpace=wrap;html=1;" vertex="1" parent="1">
          <mxGeometry x="179" y="780" width="101" height="50" as="geometry" />
        </mxCell>
        <mxCell id="wNFToPIFawrMfpCmmGGO-78" value="Categoria" style="rhombus;whiteSpace=wrap;html=1;" vertex="1" parent="1">
          <mxGeometry x="315" y="390" width="90" height="30" as="geometry" />
        </mxCell>
        <mxCell id="wNFToPIFawrMfpCmmGGO-79" value="" style="endArrow=none;html=1;rounded=0;exitX=0;exitY=0.5;exitDx=0;exitDy=0;" edge="1" parent="1" source="wNFToPIFawrMfpCmmGGO-78">
          <mxGeometry width="50" height="50" relative="1" as="geometry">
            <mxPoint x="295" y="404.83" as="sourcePoint" />
            <mxPoint x="280" y="404.83" as="targetPoint" />
          </mxGeometry>
        </mxCell>
        <mxCell id="wNFToPIFawrMfpCmmGGO-80" value="" style="endArrow=none;html=1;rounded=0;exitX=0;exitY=0.5;exitDx=0;exitDy=0;" edge="1" parent="1" source="wNFToPIFawrMfpCmmGGO-43">
          <mxGeometry width="50" height="50" relative="1" as="geometry">
            <mxPoint x="438" y="405" as="sourcePoint" />
            <mxPoint x="403" y="404.83" as="targetPoint" />
          </mxGeometry>
        </mxCell>
        <mxCell id="wNFToPIFawrMfpCmmGGO-81" value="&lt;p style=&quot;line-height: 100%;&quot;&gt;&lt;font color=&quot;#007fff&quot; style=&quot;font-size: 6px;&quot;&gt;(0,1)&lt;/font&gt;&lt;/p&gt;" style="text;html=1;align=center;verticalAlign=middle;resizable=0;points=[];autosize=1;strokeColor=none;fillColor=none;" vertex="1" parent="1">
          <mxGeometry x="270" y="370" width="40" height="50" as="geometry" />
        </mxCell>
        <mxCell id="wNFToPIFawrMfpCmmGGO-82" value="&lt;p style=&quot;line-height: 100%;&quot;&gt;&lt;font color=&quot;#007fff&quot; style=&quot;font-size: 6px;&quot;&gt;(1,1)&lt;/font&gt;&lt;/p&gt;" style="text;html=1;align=center;verticalAlign=middle;resizable=0;points=[];autosize=1;strokeColor=none;fillColor=none;" vertex="1" parent="1">
          <mxGeometry x="410" y="370" width="40" height="50" as="geometry" />
        </mxCell>
        <mxCell id="wNFToPIFawrMfpCmmGGO-83" value="&lt;p style=&quot;line-height: 100%;&quot;&gt;&lt;font color=&quot;#ff6666&quot; style=&quot;font-size: 10px;&quot;&gt;1&lt;/font&gt;&lt;/p&gt;" style="text;html=1;align=center;verticalAlign=middle;resizable=0;points=[];autosize=1;strokeColor=none;fillColor=none;" vertex="1" parent="1">
          <mxGeometry x="315" y="365" width="30" height="50" as="geometry" />
        </mxCell>
        <mxCell id="wNFToPIFawrMfpCmmGGO-84" value="&lt;p style=&quot;line-height: 0%;&quot;&gt;&lt;font color=&quot;#ff6666&quot; style=&quot;font-size: 10px;&quot;&gt;&lt;br&gt;&lt;/font&gt;&lt;/p&gt;&lt;p style=&quot;line-height: 0%;&quot;&gt;&lt;font color=&quot;#ff6666&quot; style=&quot;font-size: 10px;&quot;&gt;1&lt;/font&gt;&lt;/p&gt;" style="text;html=1;align=center;verticalAlign=middle;resizable=0;points=[];autosize=1;strokeColor=none;fillColor=none;" vertex="1" parent="1">
          <mxGeometry x="375" y="390" width="30" height="50" as="geometry" />
        </mxCell>
        <mxCell id="wNFToPIFawrMfpCmmGGO-85" value="Preparazione" style="rhombus;whiteSpace=wrap;html=1;" vertex="1" parent="1">
          <mxGeometry x="20" y="560" width="115" height="30" as="geometry" />
        </mxCell>
        <mxCell id="wNFToPIFawrMfpCmmGGO-86" value="&lt;p style=&quot;line-height: 0%; font-size: 11px;&quot;&gt;Numero di&lt;/p&gt;&lt;p style=&quot;line-height: 0%; font-size: 11px;&quot;&gt;gara&lt;/p&gt;" style="text;html=1;align=center;verticalAlign=middle;resizable=0;points=[];autosize=1;strokeColor=none;fillColor=none;" vertex="1" parent="1">
          <mxGeometry x="155" y="500" width="70" height="50" as="geometry" />
        </mxCell>
        <mxCell id="wNFToPIFawrMfpCmmGGO-87" value="" style="ellipse;whiteSpace=wrap;html=1;aspect=fixed;fillColor=#FFFFFF;" vertex="1" parent="1">
          <mxGeometry x="265" y="600" width="10" height="10" as="geometry" />
        </mxCell>
        <mxCell id="wNFToPIFawrMfpCmmGGO-88" value="" style="endArrow=none;html=1;rounded=0;" edge="1" parent="1">
          <mxGeometry width="50" height="50" relative="1" as="geometry">
            <mxPoint x="270" y="590" as="sourcePoint" />
            <mxPoint x="270" y="600" as="targetPoint" />
          </mxGeometry>
        </mxCell>
        <mxCell id="wNFToPIFawrMfpCmmGGO-89" value="&lt;p style=&quot;line-height: 40%; font-size: 11px;&quot;&gt;Modello&lt;/p&gt;&lt;p style=&quot;line-height: 40%; font-size: 11px;&quot;&gt;&lt;br&gt;&lt;/p&gt;" style="text;html=1;align=center;verticalAlign=middle;resizable=0;points=[];autosize=1;strokeColor=none;fillColor=none;rotation=0;" vertex="1" parent="1">
          <mxGeometry x="240" y="595" width="60" height="60" as="geometry" />
        </mxCell>
        <mxCell id="wNFToPIFawrMfpCmmGGO-91" value="&lt;p style=&quot;line-height: 0%;&quot;&gt;&lt;font color=&quot;#007fff&quot; style=&quot;font-size: 6px;&quot;&gt;&lt;br&gt;&lt;/font&gt;&lt;/p&gt;&lt;p style=&quot;line-height: 0%;&quot;&gt;&lt;font color=&quot;#007fff&quot; style=&quot;font-size: 6px;&quot;&gt;(1,n&lt;/font&gt;&lt;span style=&quot;font-size: 6px; color: rgb(0, 127, 255); background-color: initial;&quot;&gt;)&lt;/span&gt;&lt;/p&gt;" style="text;html=1;align=center;verticalAlign=middle;resizable=0;points=[];autosize=1;strokeColor=none;fillColor=none;" vertex="1" parent="1">
          <mxGeometry x="220" y="520" width="40" height="50" as="geometry" />
        </mxCell>
        <mxCell id="wNFToPIFawrMfpCmmGGO-92" value="" style="endArrow=none;html=1;rounded=0;entryX=1;entryY=0.5;entryDx=0;entryDy=0;exitX=0;exitY=0.5;exitDx=0;exitDy=0;" edge="1" parent="1" source="wNFToPIFawrMfpCmmGGO-71" target="wNFToPIFawrMfpCmmGGO-62">
          <mxGeometry width="50" height="50" relative="1" as="geometry">
            <mxPoint x="330" y="575" as="sourcePoint" />
            <mxPoint x="324.6" y="530" as="targetPoint" />
          </mxGeometry>
        </mxCell>
        <mxCell id="wNFToPIFawrMfpCmmGGO-93" value="" style="endArrow=none;html=1;rounded=0;entryX=1;entryY=0.5;entryDx=0;entryDy=0;exitX=0;exitY=0.5;exitDx=0;exitDy=0;" edge="1" parent="1">
          <mxGeometry width="50" height="50" relative="1" as="geometry">
            <mxPoint x="460" y="574.8" as="sourcePoint" />
            <mxPoint x="415" y="574.8" as="targetPoint" />
          </mxGeometry>
        </mxCell>
        <mxCell id="wNFToPIFawrMfpCmmGGO-94" value="" style="ellipse;whiteSpace=wrap;html=1;aspect=fixed;fillColor=#FFFFFF;" vertex="1" parent="1">
          <mxGeometry x="140" y="645" width="10" height="10" as="geometry" />
        </mxCell>
        <mxCell id="wNFToPIFawrMfpCmmGGO-95" value="" style="endArrow=none;html=1;rounded=0;" edge="1" parent="1" target="wNFToPIFawrMfpCmmGGO-94">
          <mxGeometry width="50" height="50" relative="1" as="geometry">
            <mxPoint x="175" y="650" as="sourcePoint" />
            <mxPoint x="149.99553390592882" y="655.0044660940712" as="targetPoint" />
          </mxGeometry>
        </mxCell>
        <mxCell id="wNFToPIFawrMfpCmmGGO-96" value="" style="ellipse;whiteSpace=wrap;html=1;aspect=fixed;fillColor=#FFFFFF;" vertex="1" parent="1">
          <mxGeometry x="365" y="530" width="10" height="10" as="geometry" />
        </mxCell>
        <mxCell id="wNFToPIFawrMfpCmmGGO-97" value="" style="endArrow=none;html=1;rounded=0;" edge="1" parent="1" target="wNFToPIFawrMfpCmmGGO-96">
          <mxGeometry width="50" height="50" relative="1" as="geometry">
            <mxPoint x="370" y="560" as="sourcePoint" />
            <mxPoint x="374.9955339059288" y="540.0044660940712" as="targetPoint" />
          </mxGeometry>
        </mxCell>
        <mxCell id="wNFToPIFawrMfpCmmGGO-98" value="&lt;p style=&quot;line-height: 10%; font-size: 11px;&quot;&gt;Punteggio&lt;/p&gt;" style="text;html=1;align=center;verticalAlign=middle;resizable=0;points=[];autosize=1;strokeColor=none;fillColor=none;" vertex="1" parent="1">
          <mxGeometry x="335" y="500" width="70" height="40" as="geometry" />
        </mxCell>
        <mxCell id="wNFToPIFawrMfpCmmGGO-99" value="&lt;p style=&quot;line-height: 10%; font-size: 11px;&quot;&gt;Stato fine&lt;/p&gt;&lt;p style=&quot;line-height: 10%; font-size: 11px;&quot;&gt;gara&lt;/p&gt;" style="text;html=1;align=center;verticalAlign=middle;resizable=0;points=[];autosize=1;strokeColor=none;fillColor=none;" vertex="1" parent="1">
          <mxGeometry x="335" y="610" width="70" height="50" as="geometry" />
        </mxCell>
        <mxCell id="wNFToPIFawrMfpCmmGGO-100" value="&lt;p style=&quot;line-height: 0%;&quot;&gt;&lt;font color=&quot;#007fff&quot; style=&quot;font-size: 6px;&quot;&gt;&lt;br&gt;&lt;/font&gt;&lt;/p&gt;&lt;p style=&quot;line-height: 0%;&quot;&gt;&lt;font color=&quot;#007fff&quot; style=&quot;font-size: 6px;&quot;&gt;(1,n&lt;/font&gt;&lt;span style=&quot;font-size: 6px; color: rgb(0, 127, 255); background-color: initial;&quot;&gt;)&lt;/span&gt;&lt;/p&gt;" style="text;html=1;align=center;verticalAlign=middle;resizable=0;points=[];autosize=1;strokeColor=none;fillColor=none;" vertex="1" parent="1">
          <mxGeometry x="270" y="535" width="40" height="50" as="geometry" />
        </mxCell>
        <mxCell id="wNFToPIFawrMfpCmmGGO-101" value="&lt;p style=&quot;line-height: 100%;&quot;&gt;&lt;font color=&quot;#ff6666&quot; style=&quot;font-size: 10px;&quot;&gt;N&lt;/font&gt;&lt;/p&gt;" style="text;html=1;align=center;verticalAlign=middle;resizable=0;points=[];autosize=1;strokeColor=none;fillColor=none;" vertex="1" parent="1">
          <mxGeometry x="325" y="535" width="30" height="50" as="geometry" />
        </mxCell>
        <mxCell id="wNFToPIFawrMfpCmmGGO-103" value="&lt;p style=&quot;line-height: 100%;&quot;&gt;&lt;font color=&quot;#ff6666&quot; style=&quot;font-size: 10px;&quot;&gt;M&lt;/font&gt;&lt;/p&gt;" style="text;html=1;align=center;verticalAlign=middle;resizable=0;points=[];autosize=1;strokeColor=none;fillColor=none;" vertex="1" parent="1">
          <mxGeometry x="375" y="570" width="30" height="50" as="geometry" />
        </mxCell>
        <mxCell id="wNFToPIFawrMfpCmmGGO-104" value="&lt;p style=&quot;line-height: 0%;&quot;&gt;&lt;font color=&quot;#007fff&quot; style=&quot;font-size: 6px;&quot;&gt;&lt;br&gt;&lt;/font&gt;&lt;/p&gt;&lt;p style=&quot;line-height: 0%;&quot;&gt;&lt;font color=&quot;#007fff&quot; style=&quot;font-size: 6px;&quot;&gt;(1,n&lt;/font&gt;&lt;span style=&quot;font-size: 6px; color: rgb(0, 127, 255); background-color: initial;&quot;&gt;)&lt;/span&gt;&lt;/p&gt;" style="text;html=1;align=center;verticalAlign=middle;resizable=0;points=[];autosize=1;strokeColor=none;fillColor=none;" vertex="1" parent="1">
          <mxGeometry x="430" y="535" width="40" height="50" as="geometry" />
        </mxCell>
        <mxCell id="wNFToPIFawrMfpCmmGGO-105" value="&lt;p style=&quot;line-height: 10%; font-size: 11px;&quot;&gt;Nome&lt;/p&gt;" style="text;html=1;align=center;verticalAlign=middle;resizable=0;points=[];autosize=1;strokeColor=none;fillColor=none;" vertex="1" parent="1">
          <mxGeometry x="450" y="500" width="50" height="40" as="geometry" />
        </mxCell>
        <mxCell id="wNFToPIFawrMfpCmmGGO-106" value="" style="ellipse;whiteSpace=wrap;html=1;aspect=fixed;fillColor=#FFFFFF;" vertex="1" parent="1">
          <mxGeometry x="-110" y="530" width="10" height="10" as="geometry" />
        </mxCell>
        <mxCell id="wNFToPIFawrMfpCmmGGO-107" value="" style="endArrow=none;html=1;rounded=0;" edge="1" parent="1" target="wNFToPIFawrMfpCmmGGO-106">
          <mxGeometry width="50" height="50" relative="1" as="geometry">
            <mxPoint x="-105" y="560" as="sourcePoint" />
            <mxPoint x="-100.00446609407118" y="540.0044660940712" as="targetPoint" />
          </mxGeometry>
        </mxCell>
        <mxCell id="wNFToPIFawrMfpCmmGGO-108" value="" style="ellipse;whiteSpace=wrap;html=1;aspect=fixed;fillColor=#FFFFFF;" vertex="1" parent="1">
          <mxGeometry x="530" y="610" width="10" height="10" as="geometry" />
        </mxCell>
        <mxCell id="wNFToPIFawrMfpCmmGGO-109" value="" style="endArrow=none;html=1;rounded=0;" edge="1" parent="1" target="wNFToPIFawrMfpCmmGGO-108">
          <mxGeometry width="50" height="50" relative="1" as="geometry">
            <mxPoint x="535" y="590" as="sourcePoint" />
            <mxPoint x="539.9955339059288" y="620.0044660940712" as="targetPoint" />
          </mxGeometry>
        </mxCell>
        <mxCell id="wNFToPIFawrMfpCmmGGO-110" value="" style="ellipse;whiteSpace=wrap;html=1;aspect=fixed;fillColor=#FFFFFF;" vertex="1" parent="1">
          <mxGeometry x="470" y="610" width="10" height="10" as="geometry" />
        </mxCell>
        <mxCell id="wNFToPIFawrMfpCmmGGO-111" value="" style="endArrow=none;html=1;rounded=0;" edge="1" parent="1" target="wNFToPIFawrMfpCmmGGO-110">
          <mxGeometry width="50" height="50" relative="1" as="geometry">
            <mxPoint x="475" y="590" as="sourcePoint" />
            <mxPoint x="479.9955339059288" y="620.0044660940712" as="targetPoint" />
          </mxGeometry>
        </mxCell>
        <mxCell id="wNFToPIFawrMfpCmmGGO-112" value="" style="ellipse;whiteSpace=wrap;html=1;aspect=fixed;fillColor=#FFFFFF;" vertex="1" parent="1">
          <mxGeometry x="530" y="530" width="10" height="10" as="geometry" />
        </mxCell>
        <mxCell id="wNFToPIFawrMfpCmmGGO-113" value="" style="endArrow=none;html=1;rounded=0;" edge="1" parent="1" target="wNFToPIFawrMfpCmmGGO-112">
          <mxGeometry width="50" height="50" relative="1" as="geometry">
            <mxPoint x="535" y="560" as="sourcePoint" />
            <mxPoint x="539.9955339059288" y="540.0044660940712" as="targetPoint" />
          </mxGeometry>
        </mxCell>
        <mxCell id="wNFToPIFawrMfpCmmGGO-116" value="&lt;p style=&quot;line-height: 10%; font-size: 11px;&quot;&gt;Durata&lt;/p&gt;" style="text;html=1;align=center;verticalAlign=middle;resizable=0;points=[];autosize=1;strokeColor=none;fillColor=none;" vertex="1" parent="1">
          <mxGeometry x="445" y="610" width="60" height="40" as="geometry" />
        </mxCell>
        <mxCell id="wNFToPIFawrMfpCmmGGO-117" value="&lt;p style=&quot;line-height: 10%; font-size: 11px;&quot;&gt;Data&lt;br&gt;&lt;/p&gt;" style="text;html=1;align=center;verticalAlign=middle;resizable=0;points=[];autosize=1;strokeColor=none;fillColor=none;" vertex="1" parent="1">
          <mxGeometry x="510" y="610" width="50" height="40" as="geometry" />
        </mxCell>
        <mxCell id="wNFToPIFawrMfpCmmGGO-118" value="&lt;p style=&quot;line-height: 10%; font-size: 11px;&quot;&gt;Tipo&lt;br&gt;&lt;/p&gt;" style="text;html=1;align=center;verticalAlign=middle;resizable=0;points=[];autosize=1;strokeColor=none;fillColor=none;" vertex="1" parent="1">
          <mxGeometry x="515" y="500" width="40" height="40" as="geometry" />
        </mxCell>
        <mxCell id="wNFToPIFawrMfpCmmGGO-119" value="" style="endArrow=none;html=1;rounded=0;exitX=0;exitY=0.5;exitDx=0;exitDy=0;" edge="1" parent="1">
          <mxGeometry width="50" height="50" relative="1" as="geometry">
            <mxPoint x="504.67" y="590" as="sourcePoint" />
            <mxPoint x="505" y="660" as="targetPoint" />
          </mxGeometry>
        </mxCell>
        <mxCell id="wNFToPIFawrMfpCmmGGO-120" value="&lt;p style=&quot;line-height: 100%;&quot;&gt;&lt;font color=&quot;#ff6666&quot; style=&quot;font-size: 10px;&quot;&gt;N&lt;/font&gt;&lt;/p&gt;" style="text;html=1;align=center;verticalAlign=middle;resizable=0;points=[];autosize=1;strokeColor=none;fillColor=none;" vertex="1" parent="1">
          <mxGeometry x="510" y="630" width="30" height="50" as="geometry" />
        </mxCell>
        <mxCell id="wNFToPIFawrMfpCmmGGO-121" value="&lt;p style=&quot;line-height: 100%;&quot;&gt;&lt;font color=&quot;#ff6666&quot; style=&quot;font-size: 10px;&quot;&gt;1&lt;/font&gt;&lt;/p&gt;" style="text;html=1;align=center;verticalAlign=middle;resizable=0;points=[];autosize=1;strokeColor=none;fillColor=none;" vertex="1" parent="1">
          <mxGeometry x="460" y="680" width="30" height="50" as="geometry" />
        </mxCell>
        <mxCell id="wNFToPIFawrMfpCmmGGO-122" value="&lt;p style=&quot;line-height: 0%;&quot;&gt;&lt;font style=&quot;background-color: initial; font-size: 6px;&quot; color=&quot;#007fff&quot;&gt;(1,1&lt;/font&gt;&lt;span style=&quot;background-color: initial; font-size: 6px; color: rgb(0, 127, 255);&quot;&gt;)&lt;/span&gt;&lt;br&gt;&lt;/p&gt;" style="text;html=1;align=center;verticalAlign=middle;resizable=0;points=[];autosize=1;strokeColor=none;fillColor=none;" vertex="1" parent="1">
          <mxGeometry x="473" y="575" width="40" height="40" as="geometry" />
        </mxCell>
        <mxCell id="wNFToPIFawrMfpCmmGGO-123" value="&lt;p style=&quot;line-height: 0%;&quot;&gt;&lt;font color=&quot;#007fff&quot; style=&quot;font-size: 6px;&quot;&gt;&lt;br&gt;&lt;/font&gt;&lt;/p&gt;&lt;p style=&quot;line-height: 0%;&quot;&gt;&lt;font color=&quot;#007fff&quot; style=&quot;font-size: 6px;&quot;&gt;(1,n&lt;/font&gt;&lt;span style=&quot;font-size: 6px; color: rgb(0, 127, 255); background-color: initial;&quot;&gt;)&lt;/span&gt;&lt;/p&gt;" style="text;html=1;align=center;verticalAlign=middle;resizable=0;points=[];autosize=1;strokeColor=none;fillColor=none;" vertex="1" parent="1">
          <mxGeometry x="475" y="710" width="40" height="50" as="geometry" />
        </mxCell>
        <mxCell id="wNFToPIFawrMfpCmmGGO-124" value="" style="endArrow=none;html=1;rounded=0;" edge="1" parent="1">
          <mxGeometry width="50" height="50" relative="1" as="geometry">
            <mxPoint x="505" y="700" as="sourcePoint" />
            <mxPoint x="505" y="750" as="targetPoint" />
          </mxGeometry>
        </mxCell>
        <mxCell id="wNFToPIFawrMfpCmmGGO-125" value="" style="ellipse;whiteSpace=wrap;html=1;aspect=fixed;fillColor=#000000;" vertex="1" parent="1">
          <mxGeometry x="530" y="720" width="10" height="10" as="geometry" />
        </mxCell>
        <mxCell id="wNFToPIFawrMfpCmmGGO-126" value="" style="endArrow=none;html=1;rounded=0;" edge="1" parent="1" target="wNFToPIFawrMfpCmmGGO-125">
          <mxGeometry width="50" height="50" relative="1" as="geometry">
            <mxPoint x="535" y="750" as="sourcePoint" />
            <mxPoint x="539.9955339059288" y="730.0044660940712" as="targetPoint" />
          </mxGeometry>
        </mxCell>
        <mxCell id="wNFToPIFawrMfpCmmGGO-127" value="&lt;p style=&quot;line-height: 10%; font-size: 11px;&quot;&gt;Nome&lt;/p&gt;" style="text;html=1;align=center;verticalAlign=middle;resizable=0;points=[];autosize=1;strokeColor=none;fillColor=none;" vertex="1" parent="1">
          <mxGeometry x="510" y="690" width="50" height="40" as="geometry" />
        </mxCell>
        <mxCell id="wNFToPIFawrMfpCmmGGO-128" value="&lt;p style=&quot;line-height: 10%; font-size: 11px;&quot;&gt;#Curve&lt;/p&gt;" style="text;html=1;align=center;verticalAlign=middle;resizable=0;points=[];autosize=1;strokeColor=none;fillColor=none;" vertex="1" parent="1">
          <mxGeometry x="384" y="745" width="60" height="40" as="geometry" />
        </mxCell>
        <mxCell id="wNFToPIFawrMfpCmmGGO-129" value="&lt;p style=&quot;line-height: 10%; font-size: 11px;&quot;&gt;Lunghezza&lt;/p&gt;" style="text;html=1;align=center;verticalAlign=middle;resizable=0;points=[];autosize=1;strokeColor=none;fillColor=none;" vertex="1" parent="1">
          <mxGeometry x="440" y="800" width="80" height="40" as="geometry" />
        </mxCell>
        <mxCell id="wNFToPIFawrMfpCmmGGO-130" value="&lt;p style=&quot;line-height: 10%; font-size: 11px;&quot;&gt;Paese&lt;/p&gt;" style="text;html=1;align=center;verticalAlign=middle;resizable=0;points=[];autosize=1;strokeColor=none;fillColor=none;" vertex="1" parent="1">
          <mxGeometry x="510" y="800" width="50" height="40" as="geometry" />
        </mxCell>
        <mxCell id="wNFToPIFawrMfpCmmGGO-131" value="" style="ellipse;whiteSpace=wrap;html=1;aspect=fixed;fillColor=#FFFFFF;" vertex="1" parent="1">
          <mxGeometry x="530" y="800" width="10" height="10" as="geometry" />
        </mxCell>
        <mxCell id="wNFToPIFawrMfpCmmGGO-132" value="" style="endArrow=none;html=1;rounded=0;" edge="1" parent="1" target="wNFToPIFawrMfpCmmGGO-131">
          <mxGeometry width="50" height="50" relative="1" as="geometry">
            <mxPoint x="535" y="780" as="sourcePoint" />
            <mxPoint x="539.9955339059288" y="810.0044660940712" as="targetPoint" />
          </mxGeometry>
        </mxCell>
        <mxCell id="wNFToPIFawrMfpCmmGGO-133" value="" style="ellipse;whiteSpace=wrap;html=1;aspect=fixed;fillColor=#FFFFFF;" vertex="1" parent="1">
          <mxGeometry x="475" y="800" width="10" height="10" as="geometry" />
        </mxCell>
        <mxCell id="wNFToPIFawrMfpCmmGGO-134" value="" style="endArrow=none;html=1;rounded=0;" edge="1" parent="1" target="wNFToPIFawrMfpCmmGGO-133">
          <mxGeometry width="50" height="50" relative="1" as="geometry">
            <mxPoint x="480" y="780" as="sourcePoint" />
            <mxPoint x="484.9955339059288" y="810.0044660940712" as="targetPoint" />
          </mxGeometry>
        </mxCell>
        <mxCell id="wNFToPIFawrMfpCmmGGO-135" value="" style="endArrow=none;html=1;rounded=0;entryX=1;entryY=0.5;entryDx=0;entryDy=0;exitX=0;exitY=0.5;exitDx=0;exitDy=0;" edge="1" parent="1">
          <mxGeometry width="50" height="50" relative="1" as="geometry">
            <mxPoint x="180" y="575" as="sourcePoint" />
            <mxPoint x="135" y="575" as="targetPoint" />
          </mxGeometry>
        </mxCell>
        <mxCell id="wNFToPIFawrMfpCmmGGO-136" value="&lt;p style=&quot;line-height: 100%;&quot;&gt;&lt;font color=&quot;#007fff&quot; style=&quot;font-size: 6px;&quot;&gt;(1,1)&lt;/font&gt;&lt;/p&gt;" style="text;html=1;align=center;verticalAlign=middle;resizable=0;points=[];autosize=1;strokeColor=none;fillColor=none;" vertex="1" parent="1">
          <mxGeometry x="150" y="540" width="40" height="50" as="geometry" />
        </mxCell>
        <mxCell id="wNFToPIFawrMfpCmmGGO-137" value="&lt;p style=&quot;line-height: 100%;&quot;&gt;&lt;font color=&quot;#ff6666&quot; style=&quot;font-size: 10px;&quot;&gt;1&lt;/font&gt;&lt;/p&gt;" style="text;html=1;align=center;verticalAlign=middle;resizable=0;points=[];autosize=1;strokeColor=none;fillColor=none;" vertex="1" parent="1">
          <mxGeometry x="30" y="535" width="30" height="50" as="geometry" />
        </mxCell>
        <mxCell id="wNFToPIFawrMfpCmmGGO-138" value="&lt;p style=&quot;line-height: 0%;&quot;&gt;&lt;font color=&quot;#ff6666&quot; style=&quot;font-size: 10px;&quot;&gt;&lt;br&gt;&lt;/font&gt;&lt;/p&gt;&lt;p style=&quot;line-height: 0%;&quot;&gt;&lt;font color=&quot;#ff6666&quot; style=&quot;font-size: 10px;&quot;&gt;N&lt;/font&gt;&lt;/p&gt;" style="text;html=1;align=center;verticalAlign=middle;resizable=0;points=[];autosize=1;strokeColor=none;fillColor=none;" vertex="1" parent="1">
          <mxGeometry x="95" y="560" width="30" height="50" as="geometry" />
        </mxCell>
        <mxCell id="wNFToPIFawrMfpCmmGGO-139" value="" style="endArrow=none;html=1;rounded=0;entryX=1;entryY=0.5;entryDx=0;entryDy=0;exitX=0;exitY=0.5;exitDx=0;exitDy=0;" edge="1" parent="1" target="wNFToPIFawrMfpCmmGGO-63">
          <mxGeometry width="50" height="50" relative="1" as="geometry">
            <mxPoint x="20" y="575" as="sourcePoint" />
            <mxPoint x="-25" y="575" as="targetPoint" />
          </mxGeometry>
        </mxCell>
        <mxCell id="wNFToPIFawrMfpCmmGGO-140" value="&lt;p style=&quot;line-height: 0%;&quot;&gt;&lt;font color=&quot;#007fff&quot; style=&quot;font-size: 6px;&quot;&gt;&lt;br&gt;&lt;/font&gt;&lt;/p&gt;&lt;p style=&quot;line-height: 0%;&quot;&gt;&lt;font color=&quot;#007fff&quot; style=&quot;font-size: 6px;&quot;&gt;(1,n&lt;/font&gt;&lt;span style=&quot;font-size: 6px; color: rgb(0, 127, 255); background-color: initial;&quot;&gt;)&lt;/span&gt;&lt;/p&gt;" style="text;html=1;align=center;verticalAlign=middle;resizable=0;points=[];autosize=1;strokeColor=none;fillColor=none;" vertex="1" parent="1">
          <mxGeometry x="-30" y="535" width="40" height="50" as="geometry" />
        </mxCell>
        <mxCell id="wNFToPIFawrMfpCmmGGO-141" value="" style="ellipse;whiteSpace=wrap;html=1;aspect=fixed;fillColor=#000000;" vertex="1" parent="1">
          <mxGeometry x="-40" y="530" width="10" height="10" as="geometry" />
        </mxCell>
        <mxCell id="wNFToPIFawrMfpCmmGGO-142" value="" style="endArrow=none;html=1;rounded=0;" edge="1" parent="1" target="wNFToPIFawrMfpCmmGGO-141">
          <mxGeometry width="50" height="50" relative="1" as="geometry">
            <mxPoint x="-35" y="560" as="sourcePoint" />
            <mxPoint x="-30.004466094071176" y="540.0044660940712" as="targetPoint" />
          </mxGeometry>
        </mxCell>
        <mxCell id="wNFToPIFawrMfpCmmGGO-143" value="&lt;p style=&quot;line-height: 10%; font-size: 11px;&quot;&gt;Nome&lt;/p&gt;" style="text;html=1;align=center;verticalAlign=middle;resizable=0;points=[];autosize=1;strokeColor=none;fillColor=none;" vertex="1" parent="1">
          <mxGeometry x="-60" y="500" width="50" height="40" as="geometry" />
        </mxCell>
        <mxCell id="wNFToPIFawrMfpCmmGGO-144" value="&lt;p style=&quot;line-height: 10%; font-size: 11px;&quot;&gt;&amp;nbsp; &amp;nbsp;Sede&lt;/p&gt;" style="text;html=1;align=left;verticalAlign=middle;resizable=0;points=[];autosize=1;strokeColor=none;fillColor=none;" vertex="1" parent="1">
          <mxGeometry x="-195" y="555" width="60" height="40" as="geometry" />
        </mxCell>
        <mxCell id="wNFToPIFawrMfpCmmGGO-145" value="&lt;p style=&quot;line-height: 10%; font-size: 11px;&quot;&gt;#Finanziamenti&amp;nbsp;&lt;/p&gt;&lt;p style=&quot;line-height: 10%; font-size: 11px;&quot;&gt;totali&lt;/p&gt;" style="text;html=1;align=center;verticalAlign=middle;resizable=0;points=[];autosize=1;strokeColor=none;fillColor=none;" vertex="1" parent="1">
          <mxGeometry x="-155" y="490" width="100" height="50" as="geometry" />
        </mxCell>
        <mxCell id="wNFToPIFawrMfpCmmGGO-146" value="" style="ellipse;whiteSpace=wrap;html=1;aspect=fixed;fillColor=#FFFFFF;" vertex="1" parent="1">
          <mxGeometry x="-155" y="570" width="10" height="10" as="geometry" />
        </mxCell>
        <mxCell id="wNFToPIFawrMfpCmmGGO-147" value="" style="endArrow=none;html=1;rounded=0;" edge="1" parent="1" target="wNFToPIFawrMfpCmmGGO-146">
          <mxGeometry width="50" height="50" relative="1" as="geometry">
            <mxPoint x="-120" y="575" as="sourcePoint" />
            <mxPoint x="-145.00446609407118" y="580.0044660940712" as="targetPoint" />
          </mxGeometry>
        </mxCell>
        <mxCell id="wNFToPIFawrMfpCmmGGO-149" value="" style="endArrow=none;html=1;rounded=0;exitX=0.5;exitY=1;exitDx=0;exitDy=0;" edge="1" parent="1" source="wNFToPIFawrMfpCmmGGO-62">
          <mxGeometry width="50" height="50" relative="1" as="geometry">
            <mxPoint x="190" y="640" as="sourcePoint" />
            <mxPoint x="230" y="630" as="targetPoint" />
          </mxGeometry>
        </mxCell>
        <mxCell id="wNFToPIFawrMfpCmmGGO-150" value="&lt;p style=&quot;line-height: 100%;&quot;&gt;&lt;font color=&quot;#ff6666&quot; style=&quot;font-size: 10px;&quot;&gt;M&lt;/font&gt;&lt;/p&gt;" style="text;html=1;align=center;verticalAlign=middle;resizable=0;points=[];autosize=1;strokeColor=none;fillColor=none;" vertex="1" parent="1">
          <mxGeometry x="250" y="610" width="30" height="50" as="geometry" />
        </mxCell>
        <mxCell id="wNFToPIFawrMfpCmmGGO-151" value="&lt;p style=&quot;line-height: 100%;&quot;&gt;&lt;font color=&quot;#ff6666&quot; style=&quot;font-size: 10px;&quot;&gt;N&lt;/font&gt;&lt;/p&gt;" style="text;html=1;align=center;verticalAlign=middle;resizable=0;points=[];autosize=1;strokeColor=none;fillColor=none;" vertex="1" parent="1">
          <mxGeometry x="180" y="640" width="30" height="50" as="geometry" />
        </mxCell>
        <mxCell id="wNFToPIFawrMfpCmmGGO-152" value="&lt;p style=&quot;line-height: 50%;&quot;&gt;&lt;font color=&quot;#007fff&quot; style=&quot;font-size: 6px;&quot;&gt;&lt;br&gt;&lt;/font&gt;&lt;/p&gt;&lt;p style=&quot;line-height: 50%;&quot;&gt;&lt;font color=&quot;#007fff&quot; style=&quot;font-size: 6px;&quot;&gt;(1,n&lt;/font&gt;&lt;span style=&quot;font-size: 6px; color: rgb(0, 127, 255); background-color: initial;&quot;&gt;)&lt;/span&gt;&lt;/p&gt;" style="text;html=1;align=center;verticalAlign=middle;resizable=0;points=[];autosize=1;strokeColor=none;fillColor=none;" vertex="1" parent="1">
          <mxGeometry x="195" y="550" width="40" height="70" as="geometry" />
        </mxCell>
        <mxCell id="wNFToPIFawrMfpCmmGGO-154" value="&lt;p style=&quot;line-height: 0%; font-size: 11px;&quot;&gt;&amp;nbsp; &amp;nbsp; &amp;nbsp; Data&lt;/p&gt;&lt;p style=&quot;line-height: 0%; font-size: 11px;&quot;&gt;&amp;nbsp; &amp;nbsp; &amp;nbsp;installazione&lt;/p&gt;" style="text;html=1;align=center;verticalAlign=middle;resizable=0;points=[];autosize=1;strokeColor=none;fillColor=none;" vertex="1" parent="1">
          <mxGeometry x="50" y="625" width="100" height="50" as="geometry" />
        </mxCell>
        <mxCell id="wNFToPIFawrMfpCmmGGO-156" value="" style="endArrow=none;html=1;rounded=0;exitX=0.5;exitY=1;exitDx=0;exitDy=0;" edge="1" parent="1">
          <mxGeometry width="50" height="50" relative="1" as="geometry">
            <mxPoint x="230" y="670" as="sourcePoint" />
            <mxPoint x="230" y="710" as="targetPoint" />
          </mxGeometry>
        </mxCell>
        <mxCell id="wNFToPIFawrMfpCmmGGO-157" value="" style="ellipse;whiteSpace=wrap;html=1;aspect=fixed;fillColor=#FFFFFF;" vertex="1" parent="1">
          <mxGeometry x="265" y="690" width="10" height="10" as="geometry" />
        </mxCell>
        <mxCell id="wNFToPIFawrMfpCmmGGO-158" value="" style="endArrow=none;html=1;rounded=0;" edge="1" parent="1">
          <mxGeometry width="50" height="50" relative="1" as="geometry">
            <mxPoint x="270" y="710" as="sourcePoint" />
            <mxPoint x="270" y="700" as="targetPoint" />
          </mxGeometry>
        </mxCell>
        <mxCell id="wNFToPIFawrMfpCmmGGO-159" value="&lt;p style=&quot;line-height: 40%; font-size: 11px;&quot;&gt;Costo&lt;/p&gt;" style="text;html=1;align=center;verticalAlign=middle;resizable=0;points=[];autosize=1;strokeColor=none;fillColor=none;rotation=0;" vertex="1" parent="1">
          <mxGeometry x="245" y="660" width="50" height="40" as="geometry" />
        </mxCell>
        <mxCell id="wNFToPIFawrMfpCmmGGO-161" value="&lt;p style=&quot;line-height: 40%; font-size: 11px;&quot;&gt;&lt;br&gt;&lt;/p&gt;" style="text;html=1;align=center;verticalAlign=middle;resizable=0;points=[];autosize=1;strokeColor=none;fillColor=none;rotation=0;" vertex="1" parent="1">
          <mxGeometry x="330" y="690" width="20" height="40" as="geometry" />
        </mxCell>
        <mxCell id="wNFToPIFawrMfpCmmGGO-162" value="&lt;p style=&quot;line-height: 10%; font-size: 11px;&quot;&gt;Codice&lt;/p&gt;&lt;p style=&quot;line-height: 10%; font-size: 11px;&quot;&gt;Componente&lt;/p&gt;" style="text;html=1;align=center;verticalAlign=middle;resizable=0;points=[];autosize=1;strokeColor=none;fillColor=none;" vertex="1" parent="1">
          <mxGeometry x="310" y="700" width="90" height="50" as="geometry" />
        </mxCell>
        <mxCell id="wNFToPIFawrMfpCmmGGO-163" value="&lt;p style=&quot;line-height: 50%;&quot;&gt;&lt;font color=&quot;#007fff&quot; style=&quot;font-size: 6px;&quot;&gt;&lt;br&gt;&lt;/font&gt;&lt;/p&gt;&lt;p style=&quot;line-height: 50%;&quot;&gt;&lt;font color=&quot;#007fff&quot; style=&quot;font-size: 6px;&quot;&gt;(1,n&lt;/font&gt;&lt;span style=&quot;font-size: 6px; color: rgb(0, 127, 255); background-color: initial;&quot;&gt;)&lt;/span&gt;&lt;/p&gt;" style="text;html=1;align=center;verticalAlign=middle;resizable=0;points=[];autosize=1;strokeColor=none;fillColor=none;" vertex="1" parent="1">
          <mxGeometry x="200" y="655" width="40" height="70" as="geometry" />
        </mxCell>
        <mxCell id="wNFToPIFawrMfpCmmGGO-164" value="&lt;p style=&quot;line-height: 100%;&quot;&gt;&lt;font color=&quot;#007fff&quot; style=&quot;font-size: 6px;&quot;&gt;(1,1)&lt;/font&gt;&lt;/p&gt;" style="text;html=1;align=center;verticalAlign=middle;resizable=0;points=[];autosize=1;strokeColor=none;fillColor=none;" vertex="1" parent="1">
          <mxGeometry x="140" y="690" width="40" height="50" as="geometry" />
        </mxCell>
        <mxCell id="wNFToPIFawrMfpCmmGGO-165" value="" style="endArrow=none;html=1;rounded=0;" edge="1" parent="1">
          <mxGeometry width="50" height="50" relative="1" as="geometry">
            <mxPoint x="130" y="725" as="sourcePoint" />
            <mxPoint x="170" y="725" as="targetPoint" />
          </mxGeometry>
        </mxCell>
        <mxCell id="wNFToPIFawrMfpCmmGGO-166" value="&lt;p style=&quot;line-height: 100%;&quot;&gt;&lt;font color=&quot;#ff6666&quot; style=&quot;font-size: 10px;&quot;&gt;N&lt;/font&gt;&lt;/p&gt;" style="text;html=1;align=center;verticalAlign=middle;resizable=0;points=[];autosize=1;strokeColor=none;fillColor=none;" vertex="1" parent="1">
          <mxGeometry x="90" y="685" width="30" height="50" as="geometry" />
        </mxCell>
        <mxCell id="wNFToPIFawrMfpCmmGGO-167" value="&lt;p style=&quot;line-height: 100%;&quot;&gt;&lt;font color=&quot;#ff6666&quot; style=&quot;font-size: 10px;&quot;&gt;1&lt;/font&gt;&lt;/p&gt;&lt;p style=&quot;line-height: 100%;&quot;&gt;&lt;font color=&quot;#ff6666&quot; style=&quot;font-size: 10px;&quot;&gt;&lt;br&gt;&lt;/font&gt;&lt;/p&gt;" style="text;html=1;align=center;verticalAlign=middle;resizable=0;points=[];autosize=1;strokeColor=none;fillColor=none;" vertex="1" parent="1">
          <mxGeometry x="30" y="710" width="30" height="80" as="geometry" />
        </mxCell>
        <mxCell id="wNFToPIFawrMfpCmmGGO-168" value="" style="endArrow=none;html=1;rounded=0;" edge="1" parent="1">
          <mxGeometry width="50" height="50" relative="1" as="geometry">
            <mxPoint x="-10" y="725" as="sourcePoint" />
            <mxPoint x="30" y="725" as="targetPoint" />
          </mxGeometry>
        </mxCell>
        <mxCell id="wNFToPIFawrMfpCmmGGO-170" value="" style="ellipse;whiteSpace=wrap;html=1;aspect=fixed;fillColor=#FFFFFF;" vertex="1" parent="1">
          <mxGeometry x="-80" y="680" width="10" height="10" as="geometry" />
        </mxCell>
        <mxCell id="wNFToPIFawrMfpCmmGGO-171" value="" style="endArrow=none;html=1;rounded=0;" edge="1" parent="1" target="wNFToPIFawrMfpCmmGGO-170">
          <mxGeometry width="50" height="50" relative="1" as="geometry">
            <mxPoint x="-75" y="710" as="sourcePoint" />
            <mxPoint x="-70.00446609407118" y="690.0044660940712" as="targetPoint" />
          </mxGeometry>
        </mxCell>
        <mxCell id="wNFToPIFawrMfpCmmGGO-172" value="" style="ellipse;whiteSpace=wrap;html=1;aspect=fixed;fillColor=#000000;" vertex="1" parent="1">
          <mxGeometry x="50" y="870" width="10" height="10" as="geometry" />
        </mxCell>
        <mxCell id="wNFToPIFawrMfpCmmGGO-173" value="" style="endArrow=none;html=1;rounded=0;" edge="1" parent="1" target="wNFToPIFawrMfpCmmGGO-172">
          <mxGeometry width="50" height="50" relative="1" as="geometry">
            <mxPoint x="80" y="875" as="sourcePoint" />
            <mxPoint x="59.99553390592882" y="880.0044660940712" as="targetPoint" />
          </mxGeometry>
        </mxCell>
        <mxCell id="wNFToPIFawrMfpCmmGGO-174" value="" style="ellipse;whiteSpace=wrap;html=1;aspect=fixed;fillColor=#000000;" vertex="1" parent="1">
          <mxGeometry x="-130" y="680" width="10" height="10" as="geometry" />
        </mxCell>
        <mxCell id="wNFToPIFawrMfpCmmGGO-175" value="" style="endArrow=none;html=1;rounded=0;" edge="1" parent="1" target="wNFToPIFawrMfpCmmGGO-174">
          <mxGeometry width="50" height="50" relative="1" as="geometry">
            <mxPoint x="-125" y="710" as="sourcePoint" />
            <mxPoint x="-120.00446609407118" y="690.0044660940712" as="targetPoint" />
          </mxGeometry>
        </mxCell>
        <mxCell id="wNFToPIFawrMfpCmmGGO-176" value="" style="ellipse;whiteSpace=wrap;html=1;aspect=fixed;fillColor=#FFFFFF;" vertex="1" parent="1">
          <mxGeometry x="-30" y="680" width="10" height="10" as="geometry" />
        </mxCell>
        <mxCell id="wNFToPIFawrMfpCmmGGO-177" value="" style="endArrow=none;html=1;rounded=0;" edge="1" parent="1" target="wNFToPIFawrMfpCmmGGO-176">
          <mxGeometry width="50" height="50" relative="1" as="geometry">
            <mxPoint x="-25" y="710" as="sourcePoint" />
            <mxPoint x="-20.004466094071176" y="690.0044660940712" as="targetPoint" />
          </mxGeometry>
        </mxCell>
        <mxCell id="wNFToPIFawrMfpCmmGGO-178" value="" style="ellipse;whiteSpace=wrap;html=1;aspect=fixed;fillColor=#FFFFFF;" vertex="1" parent="1">
          <mxGeometry x="145" y="910" width="10" height="10" as="geometry" />
        </mxCell>
        <mxCell id="wNFToPIFawrMfpCmmGGO-179" value="" style="endArrow=none;html=1;rounded=0;" edge="1" parent="1" target="wNFToPIFawrMfpCmmGGO-178">
          <mxGeometry width="50" height="50" relative="1" as="geometry">
            <mxPoint x="150" y="890" as="sourcePoint" />
            <mxPoint x="154.99553390592882" y="920.0044660940712" as="targetPoint" />
          </mxGeometry>
        </mxCell>
        <mxCell id="wNFToPIFawrMfpCmmGGO-180" value="" style="ellipse;whiteSpace=wrap;html=1;aspect=fixed;fillColor=#FFFFFF;" vertex="1" parent="1">
          <mxGeometry x="85" y="840" width="10" height="10" as="geometry" />
        </mxCell>
        <mxCell id="wNFToPIFawrMfpCmmGGO-181" value="" style="endArrow=none;html=1;rounded=0;" edge="1" parent="1">
          <mxGeometry width="50" height="50" relative="1" as="geometry">
            <mxPoint x="90" y="860" as="sourcePoint" />
            <mxPoint x="90" y="850" as="targetPoint" />
          </mxGeometry>
        </mxCell>
        <mxCell id="wNFToPIFawrMfpCmmGGO-182" value="" style="ellipse;whiteSpace=wrap;html=1;aspect=fixed;fillColor=#FFFFFF;" vertex="1" parent="1">
          <mxGeometry x="-30" y="760" width="10" height="10" as="geometry" />
        </mxCell>
        <mxCell id="wNFToPIFawrMfpCmmGGO-183" value="" style="endArrow=none;html=1;rounded=0;" edge="1" parent="1" target="wNFToPIFawrMfpCmmGGO-182">
          <mxGeometry width="50" height="50" relative="1" as="geometry">
            <mxPoint x="-25" y="740" as="sourcePoint" />
            <mxPoint x="-20.004466094071176" y="770.0044660940712" as="targetPoint" />
          </mxGeometry>
        </mxCell>
        <mxCell id="wNFToPIFawrMfpCmmGGO-184" value="&lt;p style=&quot;line-height: 10%; font-size: 11px;&quot;&gt;#Componenti&lt;/p&gt;" style="text;html=1;align=center;verticalAlign=middle;resizable=0;points=[];autosize=1;strokeColor=none;fillColor=none;" vertex="1" parent="1">
          <mxGeometry x="-70" y="760" width="90" height="40" as="geometry" />
        </mxCell>
        <mxCell id="wNFToPIFawrMfpCmmGGO-185" value="&lt;p style=&quot;line-height: 10%; font-size: 11px;&quot;&gt;&lt;br&gt;&lt;/p&gt;" style="text;html=1;align=center;verticalAlign=middle;resizable=0;points=[];autosize=1;strokeColor=none;fillColor=none;" vertex="1" parent="1">
          <mxGeometry x="-145" y="640" width="20" height="40" as="geometry" />
        </mxCell>
        <mxCell id="wNFToPIFawrMfpCmmGGO-186" value="&lt;p style=&quot;line-height: 10%; font-size: 11px;&quot;&gt;Sede&lt;/p&gt;" style="text;html=1;align=center;verticalAlign=middle;resizable=0;points=[];autosize=1;strokeColor=none;fillColor=none;" vertex="1" parent="1">
          <mxGeometry x="-50" y="650" width="50" height="40" as="geometry" />
        </mxCell>
        <mxCell id="wNFToPIFawrMfpCmmGGO-187" value="&lt;p style=&quot;line-height: 10%; font-size: 11px;&quot;&gt;Nome&lt;/p&gt;" style="text;html=1;align=center;verticalAlign=middle;resizable=0;points=[];autosize=1;strokeColor=none;fillColor=none;" vertex="1" parent="1">
          <mxGeometry x="-150" y="650" width="50" height="40" as="geometry" />
        </mxCell>
        <mxCell id="wNFToPIFawrMfpCmmGGO-188" value="&lt;p style=&quot;line-height: 0%; font-size: 11px;&quot;&gt;Ragione&lt;/p&gt;&lt;p style=&quot;line-height: 0%; font-size: 11px;&quot;&gt;sociale&lt;/p&gt;" style="text;html=1;align=center;verticalAlign=middle;resizable=0;points=[];autosize=1;strokeColor=none;fillColor=none;" vertex="1" parent="1">
          <mxGeometry x="-105" y="640" width="60" height="50" as="geometry" />
        </mxCell>
        <mxCell id="wNFToPIFawrMfpCmmGGO-189" value="" style="endArrow=none;html=1;rounded=0;exitX=0.5;exitY=1;exitDx=0;exitDy=0;" edge="1" parent="1" source="wNFToPIFawrMfpCmmGGO-64">
          <mxGeometry width="50" height="50" relative="1" as="geometry">
            <mxPoint x="190" y="890" as="sourcePoint" />
            <mxPoint x="230" y="780" as="targetPoint" />
          </mxGeometry>
        </mxCell>
        <mxCell id="wNFToPIFawrMfpCmmGGO-190" value="" style="endArrow=none;html=1;rounded=0;entryX=0.157;entryY=1.039;entryDx=0;entryDy=0;entryPerimeter=0;exitX=1;exitY=0;exitDx=0;exitDy=0;" edge="1" parent="1" source="wNFToPIFawrMfpCmmGGO-75" target="wNFToPIFawrMfpCmmGGO-64">
          <mxGeometry width="50" height="50" relative="1" as="geometry">
            <mxPoint x="146.08" y="780" as="sourcePoint" />
            <mxPoint x="190.00000000000009" y="741.02" as="targetPoint" />
          </mxGeometry>
        </mxCell>
        <mxCell id="wNFToPIFawrMfpCmmGGO-191" value="" style="endArrow=none;html=1;rounded=0;exitX=0.5;exitY=1;exitDx=0;exitDy=0;entryX=0;entryY=0;entryDx=0;entryDy=0;" edge="1" parent="1" target="wNFToPIFawrMfpCmmGGO-76">
          <mxGeometry width="50" height="50" relative="1" as="geometry">
            <mxPoint x="264.72" y="740" as="sourcePoint" />
            <mxPoint x="310" y="790" as="targetPoint" />
          </mxGeometry>
        </mxCell>
        <mxCell id="wNFToPIFawrMfpCmmGGO-193" value="" style="endArrow=none;html=1;rounded=0;exitX=0.5;exitY=1;exitDx=0;exitDy=0;" edge="1" parent="1">
          <mxGeometry width="50" height="50" relative="1" as="geometry">
            <mxPoint x="229.26" y="830" as="sourcePoint" />
            <mxPoint x="229.26" y="870" as="targetPoint" />
          </mxGeometry>
        </mxCell>
        <mxCell id="wNFToPIFawrMfpCmmGGO-194" value="" style="endArrow=none;html=1;rounded=0;exitX=0.5;exitY=1;exitDx=0;exitDy=0;" edge="1" parent="1">
          <mxGeometry width="50" height="50" relative="1" as="geometry">
            <mxPoint x="339.76" y="820" as="sourcePoint" />
            <mxPoint x="339.76" y="860" as="targetPoint" />
          </mxGeometry>
        </mxCell>
        <mxCell id="wNFToPIFawrMfpCmmGGO-195" value="" style="endArrow=none;html=1;rounded=0;exitX=0.5;exitY=1;exitDx=0;exitDy=0;" edge="1" parent="1">
          <mxGeometry width="50" height="50" relative="1" as="geometry">
            <mxPoint x="120" y="820" as="sourcePoint" />
            <mxPoint x="120" y="860" as="targetPoint" />
          </mxGeometry>
        </mxCell>
        <mxCell id="wNFToPIFawrMfpCmmGGO-196" value="&lt;p style=&quot;line-height: 100%;&quot;&gt;&lt;font color=&quot;#007fff&quot; style=&quot;font-size: 6px;&quot;&gt;(0,1)&lt;/font&gt;&lt;/p&gt;" style="text;html=1;align=center;verticalAlign=middle;resizable=0;points=[];autosize=1;strokeColor=none;fillColor=none;" vertex="1" parent="1">
          <mxGeometry x="200" y="720" width="40" height="50" as="geometry" />
        </mxCell>
        <mxCell id="wNFToPIFawrMfpCmmGGO-197" value="&lt;p style=&quot;line-height: 100%;&quot;&gt;&lt;font color=&quot;#007fff&quot; style=&quot;font-size: 6px;&quot;&gt;(0,1)&lt;/font&gt;&lt;/p&gt;" style="text;html=1;align=center;verticalAlign=middle;resizable=0;points=[];autosize=1;strokeColor=none;fillColor=none;" vertex="1" parent="1">
          <mxGeometry x="150" y="720" width="40" height="50" as="geometry" />
        </mxCell>
        <mxCell id="wNFToPIFawrMfpCmmGGO-199" value="&lt;p style=&quot;line-height: 0%;&quot;&gt;&lt;font color=&quot;#007fff&quot; style=&quot;font-size: 6px;&quot;&gt;&lt;br&gt;&lt;/font&gt;&lt;/p&gt;&lt;p style=&quot;line-height: 100%;&quot;&gt;&lt;font color=&quot;#007fff&quot; style=&quot;font-size: 6px;&quot;&gt;(1,1)&lt;/font&gt;&lt;/p&gt;" style="text;html=1;align=center;verticalAlign=middle;resizable=0;points=[];autosize=1;strokeColor=none;fillColor=none;" vertex="1" parent="1">
          <mxGeometry x="110" y="810" width="40" height="70" as="geometry" />
        </mxCell>
        <mxCell id="wNFToPIFawrMfpCmmGGO-200" value="&lt;p style=&quot;line-height: 0%;&quot;&gt;&lt;font color=&quot;#007fff&quot; style=&quot;font-size: 6px;&quot;&gt;&lt;br&gt;&lt;/font&gt;&lt;/p&gt;&lt;p style=&quot;line-height: 100%;&quot;&gt;&lt;font color=&quot;#007fff&quot; style=&quot;font-size: 6px;&quot;&gt;(1,1)&lt;/font&gt;&lt;/p&gt;" style="text;html=1;align=center;verticalAlign=middle;resizable=0;points=[];autosize=1;strokeColor=none;fillColor=none;" vertex="1" parent="1">
          <mxGeometry x="330" y="810" width="40" height="70" as="geometry" />
        </mxCell>
        <mxCell id="wNFToPIFawrMfpCmmGGO-201" value="&lt;p style=&quot;line-height: 0%;&quot;&gt;&lt;font color=&quot;#007fff&quot; style=&quot;font-size: 6px;&quot;&gt;&lt;br&gt;&lt;/font&gt;&lt;/p&gt;&lt;p style=&quot;line-height: 100%;&quot;&gt;&lt;font color=&quot;#007fff&quot; style=&quot;font-size: 6px;&quot;&gt;(1,1)&lt;/font&gt;&lt;/p&gt;" style="text;html=1;align=center;verticalAlign=middle;resizable=0;points=[];autosize=1;strokeColor=none;fillColor=none;" vertex="1" parent="1">
          <mxGeometry x="220" y="820" width="40" height="70" as="geometry" />
        </mxCell>
        <mxCell id="wNFToPIFawrMfpCmmGGO-202" value="&lt;p style=&quot;line-height: 100%;&quot;&gt;&lt;font color=&quot;#ff6666&quot; style=&quot;font-size: 10px;&quot;&gt;1&lt;/font&gt;&lt;/p&gt;&lt;p style=&quot;line-height: 100%;&quot;&gt;&lt;font color=&quot;#ff6666&quot; style=&quot;font-size: 10px;&quot;&gt;&lt;br&gt;&lt;/font&gt;&lt;/p&gt;" style="text;html=1;align=center;verticalAlign=middle;resizable=0;points=[];autosize=1;strokeColor=none;fillColor=none;" vertex="1" parent="1">
          <mxGeometry x="295" y="790" width="30" height="80" as="geometry" />
        </mxCell>
        <mxCell id="wNFToPIFawrMfpCmmGGO-203" value="&lt;p style=&quot;line-height: 100%;&quot;&gt;&lt;font color=&quot;#ff6666&quot; style=&quot;font-size: 10px;&quot;&gt;1&lt;/font&gt;&lt;/p&gt;&lt;p style=&quot;line-height: 100%;&quot;&gt;&lt;font color=&quot;#ff6666&quot; style=&quot;font-size: 10px;&quot;&gt;&lt;br&gt;&lt;/font&gt;&lt;/p&gt;" style="text;html=1;align=center;verticalAlign=middle;resizable=0;points=[];autosize=1;strokeColor=none;fillColor=none;" vertex="1" parent="1">
          <mxGeometry x="355" y="745" width="30" height="80" as="geometry" />
        </mxCell>
        <mxCell id="wNFToPIFawrMfpCmmGGO-204" value="&lt;p style=&quot;line-height: 100%;&quot;&gt;&lt;font color=&quot;#ff6666&quot; style=&quot;font-size: 10px;&quot;&gt;1&lt;/font&gt;&lt;/p&gt;&lt;p style=&quot;line-height: 100%;&quot;&gt;&lt;font color=&quot;#ff6666&quot; style=&quot;font-size: 10px;&quot;&gt;&lt;br&gt;&lt;/font&gt;&lt;/p&gt;" style="text;html=1;align=center;verticalAlign=middle;resizable=0;points=[];autosize=1;strokeColor=none;fillColor=none;" vertex="1" parent="1">
          <mxGeometry x="130" y="790" width="30" height="80" as="geometry" />
        </mxCell>
        <mxCell id="wNFToPIFawrMfpCmmGGO-205" value="&lt;p style=&quot;line-height: 100%;&quot;&gt;&lt;font color=&quot;#ff6666&quot; style=&quot;font-size: 10px;&quot;&gt;1&lt;/font&gt;&lt;/p&gt;&lt;p style=&quot;line-height: 100%;&quot;&gt;&lt;font color=&quot;#ff6666&quot; style=&quot;font-size: 10px;&quot;&gt;&lt;br&gt;&lt;/font&gt;&lt;/p&gt;" style="text;html=1;align=center;verticalAlign=middle;resizable=0;points=[];autosize=1;strokeColor=none;fillColor=none;" vertex="1" parent="1">
          <mxGeometry x="190" y="755" width="30" height="80" as="geometry" />
        </mxCell>
        <mxCell id="wNFToPIFawrMfpCmmGGO-206" value="&lt;p style=&quot;line-height: 100%;&quot;&gt;&lt;font color=&quot;#ff6666&quot; style=&quot;font-size: 10px;&quot;&gt;1&lt;/font&gt;&lt;/p&gt;&lt;p style=&quot;line-height: 100%;&quot;&gt;&lt;font color=&quot;#ff6666&quot; style=&quot;font-size: 10px;&quot;&gt;&lt;br&gt;&lt;/font&gt;&lt;/p&gt;" style="text;html=1;align=center;verticalAlign=middle;resizable=0;points=[];autosize=1;strokeColor=none;fillColor=none;" vertex="1" parent="1">
          <mxGeometry x="75" y="745" width="30" height="80" as="geometry" />
        </mxCell>
        <mxCell id="wNFToPIFawrMfpCmmGGO-207" value="&lt;p style=&quot;line-height: 100%;&quot;&gt;&lt;font color=&quot;#ff6666&quot; style=&quot;font-size: 10px;&quot;&gt;1&lt;/font&gt;&lt;/p&gt;&lt;p style=&quot;line-height: 100%;&quot;&gt;&lt;font color=&quot;#ff6666&quot; style=&quot;font-size: 10px;&quot;&gt;&lt;br&gt;&lt;/font&gt;&lt;/p&gt;" style="text;html=1;align=center;verticalAlign=middle;resizable=0;points=[];autosize=1;strokeColor=none;fillColor=none;" vertex="1" parent="1">
          <mxGeometry x="245" y="795" width="30" height="80" as="geometry" />
        </mxCell>
        <mxCell id="wNFToPIFawrMfpCmmGGO-208" value="&lt;p style=&quot;line-height: 10%; font-size: 11px;&quot;&gt;Cilindrata&lt;/p&gt;" style="text;html=1;align=center;verticalAlign=middle;resizable=0;points=[];autosize=1;strokeColor=none;fillColor=none;" vertex="1" parent="1">
          <mxGeometry x="55" y="810" width="70" height="40" as="geometry" />
        </mxCell>
        <mxCell id="wNFToPIFawrMfpCmmGGO-209" value="&lt;p style=&quot;line-height: 10%; font-size: 11px;&quot;&gt;Tipo&lt;/p&gt;" style="text;html=1;align=center;verticalAlign=middle;resizable=0;points=[];autosize=1;strokeColor=none;fillColor=none;" vertex="1" parent="1">
          <mxGeometry x="130" y="910" width="40" height="40" as="geometry" />
        </mxCell>
        <mxCell id="wNFToPIFawrMfpCmmGGO-210" value="&lt;p style=&quot;line-height: 10%; font-size: 11px;&quot;&gt;#Cilindri&lt;/p&gt;" style="text;html=1;align=center;verticalAlign=middle;resizable=0;points=[];autosize=1;strokeColor=none;fillColor=none;" vertex="1" parent="1">
          <mxGeometry x="60" y="910" width="60" height="40" as="geometry" />
        </mxCell>
        <mxCell id="wNFToPIFawrMfpCmmGGO-211" value="&lt;p style=&quot;line-height: 10%; font-size: 11px;&quot;&gt;Materiale&lt;/p&gt;" style="text;html=1;align=center;verticalAlign=middle;resizable=0;points=[];autosize=1;strokeColor=none;fillColor=none;" vertex="1" parent="1">
          <mxGeometry x="170" y="920" width="70" height="40" as="geometry" />
        </mxCell>
        <mxCell id="wNFToPIFawrMfpCmmGGO-212" value="&lt;p style=&quot;line-height: 10%; font-size: 11px;&quot;&gt;Peso&lt;/p&gt;" style="text;html=1;align=center;verticalAlign=middle;resizable=0;points=[];autosize=1;strokeColor=none;fillColor=none;" vertex="1" parent="1">
          <mxGeometry x="185" y="820" width="50" height="40" as="geometry" />
        </mxCell>
        <mxCell id="wNFToPIFawrMfpCmmGGO-213" value="&lt;p style=&quot;line-height: 10%; font-size: 11px;&quot;&gt;Marcia&lt;/p&gt;" style="text;html=1;align=center;verticalAlign=middle;resizable=0;points=[];autosize=1;strokeColor=none;fillColor=none;" vertex="1" parent="1">
          <mxGeometry x="310" y="910" width="60" height="40" as="geometry" />
        </mxCell>
        <mxCell id="wNFToPIFawrMfpCmmGGO-214" value="" style="ellipse;whiteSpace=wrap;html=1;aspect=fixed;fillColor=#FFFFFF;" vertex="1" parent="1">
          <mxGeometry x="85" y="910" width="10" height="10" as="geometry" />
        </mxCell>
        <mxCell id="wNFToPIFawrMfpCmmGGO-215" value="" style="endArrow=none;html=1;rounded=0;" edge="1" parent="1" target="wNFToPIFawrMfpCmmGGO-214">
          <mxGeometry width="50" height="50" relative="1" as="geometry">
            <mxPoint x="90" y="890" as="sourcePoint" />
            <mxPoint x="94.99553390592882" y="920.0044660940712" as="targetPoint" />
          </mxGeometry>
        </mxCell>
        <mxCell id="wNFToPIFawrMfpCmmGGO-216" value="" style="ellipse;whiteSpace=wrap;html=1;aspect=fixed;fillColor=#FFFFFF;" vertex="1" parent="1">
          <mxGeometry x="200" y="920" width="10" height="10" as="geometry" />
        </mxCell>
        <mxCell id="wNFToPIFawrMfpCmmGGO-217" value="" style="endArrow=none;html=1;rounded=0;" edge="1" parent="1" target="wNFToPIFawrMfpCmmGGO-216">
          <mxGeometry width="50" height="50" relative="1" as="geometry">
            <mxPoint x="205" y="900" as="sourcePoint" />
            <mxPoint x="209.99553390592882" y="930.0044660940712" as="targetPoint" />
          </mxGeometry>
        </mxCell>
        <mxCell id="wNFToPIFawrMfpCmmGGO-218" value="" style="ellipse;whiteSpace=wrap;html=1;aspect=fixed;fillColor=#000000;" vertex="1" parent="1">
          <mxGeometry x="250" y="920" width="10" height="10" as="geometry" />
        </mxCell>
        <mxCell id="wNFToPIFawrMfpCmmGGO-219" value="" style="endArrow=none;html=1;rounded=0;" edge="1" parent="1" target="wNFToPIFawrMfpCmmGGO-218">
          <mxGeometry width="50" height="50" relative="1" as="geometry">
            <mxPoint x="255" y="900" as="sourcePoint" />
            <mxPoint x="259.9955339059288" y="930.0044660940712" as="targetPoint" />
          </mxGeometry>
        </mxCell>
        <mxCell id="wNFToPIFawrMfpCmmGGO-220" value="" style="ellipse;whiteSpace=wrap;html=1;aspect=fixed;fillColor=#FFFFFF;" vertex="1" parent="1">
          <mxGeometry x="335" y="910" width="10" height="10" as="geometry" />
        </mxCell>
        <mxCell id="wNFToPIFawrMfpCmmGGO-221" value="" style="endArrow=none;html=1;rounded=0;" edge="1" parent="1" target="wNFToPIFawrMfpCmmGGO-220">
          <mxGeometry width="50" height="50" relative="1" as="geometry">
            <mxPoint x="340" y="890" as="sourcePoint" />
            <mxPoint x="344.9955339059288" y="920.0044660940712" as="targetPoint" />
          </mxGeometry>
        </mxCell>
        <mxCell id="wNFToPIFawrMfpCmmGGO-222" value="" style="ellipse;whiteSpace=wrap;html=1;aspect=fixed;fillColor=#FFFFFF;" vertex="1" parent="1">
          <mxGeometry x="205" y="850" width="10" height="10" as="geometry" />
        </mxCell>
        <mxCell id="wNFToPIFawrMfpCmmGGO-223" value="" style="endArrow=none;html=1;rounded=0;" edge="1" parent="1">
          <mxGeometry width="50" height="50" relative="1" as="geometry">
            <mxPoint x="210" y="870" as="sourcePoint" />
            <mxPoint x="210" y="860" as="targetPoint" />
          </mxGeometry>
        </mxCell>
        <mxCell id="wNFToPIFawrMfpCmmGGO-224" value="&lt;p style=&quot;line-height: 10%; font-size: 11px;&quot;&gt;&lt;br&gt;&lt;/p&gt;" style="text;html=1;align=center;verticalAlign=middle;resizable=0;points=[];autosize=1;strokeColor=none;fillColor=none;" vertex="1" parent="1">
          <mxGeometry x="245" y="920" width="20" height="40" as="geometry" />
        </mxCell>
        <mxCell id="wNFToPIFawrMfpCmmGGO-225" value="&lt;p style=&quot;line-height: 10%; font-size: 11px;&quot;&gt;Codice&lt;/p&gt;&lt;p style=&quot;line-height: 10%; font-size: 11px;&quot;&gt;Telaio&lt;/p&gt;" style="text;html=1;align=center;verticalAlign=middle;resizable=0;points=[];autosize=1;strokeColor=none;fillColor=none;" vertex="1" parent="1">
          <mxGeometry x="225" y="920" width="60" height="50" as="geometry" />
        </mxCell>
        <mxCell id="wNFToPIFawrMfpCmmGGO-226" value="&lt;p style=&quot;line-height: 10%; font-size: 11px;&quot;&gt;Codice&lt;/p&gt;&lt;p style=&quot;line-height: 10%; font-size: 11px;&quot;&gt;Cambio&lt;/p&gt;" style="text;html=1;align=center;verticalAlign=middle;resizable=0;points=[];autosize=1;strokeColor=none;fillColor=none;" vertex="1" parent="1">
          <mxGeometry x="390" y="850" width="60" height="50" as="geometry" />
        </mxCell>
        <mxCell id="wNFToPIFawrMfpCmmGGO-227" value="&lt;p style=&quot;line-height: 10%; font-size: 11px;&quot;&gt;Codice&lt;/p&gt;&lt;p style=&quot;line-height: 10%; font-size: 11px;&quot;&gt;Motore&lt;/p&gt;" style="text;html=1;align=center;verticalAlign=middle;resizable=0;points=[];autosize=1;strokeColor=none;fillColor=none;" vertex="1" parent="1">
          <mxGeometry y="850" width="60" height="50" as="geometry" />
        </mxCell>
      </root>
    </mxGraphModel>
  </diagram>
</mxfile>
